<?xml version="1.0" encoding="UTF-8"?> <svg xmlns="http://www.w3.org/2000/svg" id="Слой_1" data-name="Слой 1" viewBox="0 0 283.46457 283.46457"> <path d="M250.85157,174.54359c-.4,1.8-.8,3.5-1.1,5.3a18.00842,18.00842,0,0,1-3.8,7.4c-3.8,5.1-9.1,7.2-15.2,7.6-5,.4-10.1.2-15.2.2h-45.2a3.75093,3.75093,0,0,0-1,.1v17.1c-.1,0-.1,0-.2.1a3.50888,3.50888,0,0,1-.5-.8c-2.5-4.1-5-8.1-7.5-12.2-2.9-4.8-5.8-9.5-8.8-14.3a1.2006,1.2006,0,0,1,0-1.5c4-6.6,8.1-13.2,12.1-19.8,1.5-2.5,3-5,4.7-7.5v19.9c.5,0,.8.1,1.1.1h53.1c2.2,0,4.5-.2,6.2-2.1a5.6263,5.6263,0,0,0,1.4-4.3c-.1-2.4-1.4-4.3-2.5-6.2-5.6-9.8-11.3-19.6-17-29.4-4.1-7.1-8.2-14.1-12.3-21.2-.4-.8-.9-1.6-1.4-2.5,5.4-3.1,10.7-6.2,16.2-9.4.5.9,1,1.8,1.5,2.6q11.25,19.5,22.5,39.1c2.7,4.7,5.6,9.4,8.2,14.3a54.18706,54.18706,0,0,1,3.5,9,31.15484,31.15484,0,0,1,1.1,5.3A29.12476,29.12476,0,0,1,250.85157,174.54359Z"></path> <path d="M152.65157,15.34359c.9.1,1.9.2,2.8.3,5.6.5,9.7,3.6,13.3,7.7a28.58044,28.58044,0,0,1,2.8,4q14.1,24.15,28,48.3c.4.8.9,1.5,1.4,2.4,5-3,10-5.9,15-8.8.1,0,.1.1.2.1-.2.4-.4.7-.6,1.1-2.4,4.4-4.8,8.7-7.1,13.1-2.5,4.7-5,9.4-7.4,14.2a1.42462,1.42462,0,0,1-1.6.9c-8.8-.3-17.7-.5-26.5-.7h-5.3c0-.1-.1-.3-.1-.4,5.7-3.3,11.5-6.7,17.3-10-1.7-3-3.4-5.8-5-8.6-7.2-12.4-14.3-24.9-21.5-37.3a12.7155,12.7155,0,0,0-3.8-4.5,5.24821,5.24821,0,0,0-6.3.4,14.82463,14.82463,0,0,0-3.1,3.9q-13.8,23.7-27.5,47.6c-1.3,2.3-2.6,4.5-4,6.8-5.5-3.1-10.8-6.2-16.3-9.3,1.3-2.2,2.5-4.4,3.7-6.5,8.8-15.2,17.6-30.3,26.3-45.6,2.7-4.8,6.3-8.8,9.9-12.9a17.39148,17.39148,0,0,1,3.8-2.7,27.95266,27.95266,0,0,1,9.3-3.3.758.758,0,0,0,.4-.2Z"></path> <path d="M83.85157,109.34358c-5-2.9-9.9-5.8-14.8-8.6v-.3c.7,0,1.5-.1,2.2-.1q14.7-.45,29.4-.9a1.68149,1.68149,0,0,1,1.7.9l9.3,17.1c2,3.7,4,7.3,5.9,11.2-5.8-3.3-11.6-6.7-17.5-10.1-1,1.7-2,3.4-3,5q-9.9,17.25-19.8,34.5c-1.5,2.5-3,5-4.4,7.6a10.75878,10.75878,0,0,0-1.3,4.3,5.40544,5.40544,0,0,0,4.2,5.7,13.4486,13.4486,0,0,0,3.5.5h63.5v18.7c-.4,0-.8.1-1.2.1-21,0-42.1.1-63.1-.1-2.8,0-5.5-1-8.3-1.3-6.4-.7-11.3-4.2-15.1-9.1a19.147,19.147,0,0,1-4.1-14.7,30.20731,30.20731,0,0,1,4.1-10.8c6.9-12,13.9-24.1,20.8-36.1C78.55157,118.54359,81.15157,114.04359,83.85157,109.34358Z"></path> <path d="M122.448,125.78883c0-12.89941,5.04-19.65527,12.96-19.65527,7.91944,0,12.95948,6.7915,12.95948,19.65527,0,12.89942-5.04,19.9668-12.95948,19.9668C127.48805,145.75563,122.448,138.68825,122.448,125.78883Zm19.31934,0c0-10.7998-2.66406-14.23144-6.35938-14.23144-3.69629,0-6.36035,3.43164-6.36035,14.23144,0,10.79932,2.66406,14.54346,6.36035,14.54346C139.10329,140.33229,141.76735,136.58815,141.76735,125.78883Z"></path> <path d="M155.24342,139.39625h8.544V114.34108H156.7317v-4.34375a24.51891,24.51891,0,0,0,8.80762-3.144h5.16016v32.543h7.51172v5.63965H155.24342Z"></path> <path d="M96.68971,222.49293h15.67578c10.03907,0,18.13672,3.59082,18.13672,14.67774,0,10.72461-8.1875,15.46875-17.85644,15.46875h-5.64063v15.48144H96.68971Zm15.34668,21.957c5.67188,0,8.35645-2.52832,8.35645-7.2793,0-4.77539-3.05469-6.48731-8.63672-6.48731h-4.751V244.45Z"></path> <path d="M138.40944,222.49293h28.58984v8.65137H148.72487v9.16211h15.55664v8.65137H148.72487V259.4695h18.97461v8.65136h-29.29Z"></path> <path d="M185.69655,231.1443H173.137v-8.65137h35.43359v8.65137H196.012v36.97656H185.69655Z"></path> </svg> 