<?xml version="1.0" encoding="UTF-8"?> <svg xmlns="http://www.w3.org/2000/svg" id="Слой_1" data-name="Слой 1" viewBox="0 0 283.46457 283.46457"> <path d="M241.78045,174.54359c-.4,1.8-.8,3.5-1.1,5.3a18.00866,18.00866,0,0,1-3.8,7.4c-3.8,5.1-9.1,7.2-15.2,7.6-5,.4-10.1.2-15.2.2h-45.2a3.7509,3.7509,0,0,0-1,.1v17.1c-.1,0-.1,0-.2.1a3.50818,3.50818,0,0,1-.5-.8c-2.5-4.1-5-8.1-7.5-12.2-2.9-4.8-5.8-9.5-8.8-14.3a1.20057,1.20057,0,0,1,0-1.5c4-6.6,8.1-13.2,12.1-19.8,1.5-2.5,3-5,4.7-7.5v19.9c.5,0,.8.1,1.1.1h53.1c2.2,0,4.5-.2,6.2-2.1a5.62629,5.62629,0,0,0,1.4-4.3c-.1-2.4-1.4-4.3-2.5-6.2-5.6-9.8-11.3-19.6-17-29.4-4.1-7.1-8.2-14.1-12.3-21.2-.4-.8-.9-1.6-1.4-2.5,5.4-3.1,10.7-6.2,16.2-9.4.5.9,1,1.8,1.5,2.6q11.25,19.5,22.5,39.1c2.7,4.7,5.6,9.4,8.2,14.3a54.18706,54.18706,0,0,1,3.5,9,31.15579,31.15579,0,0,1,1.1,5.3A29.12186,29.12186,0,0,1,241.78045,174.54359Z"></path> <path d="M143.58045,15.34359c.9.1,1.9.2,2.8.3,5.6.5,9.7,3.6,13.3,7.7a28.58133,28.58133,0,0,1,2.8,4q14.1,24.15,28,48.3c.4.8.9,1.5,1.4,2.4,5-3,10-5.9,15-8.8.1,0,.1.1.2.1-.2.4-.4.7-.6,1.1-2.4,4.4-4.8,8.7-7.1,13.1-2.5,4.7-5,9.4-7.4,14.2a1.42461,1.42461,0,0,1-1.6.9c-8.8-.3-17.7-.5-26.5-.7h-5.3c0-.1-.1-.3-.1-.4,5.7-3.3,11.5-6.7,17.3-10-1.7-3-3.4-5.8-5-8.6-7.2-12.4-14.3-24.9-21.5-37.3a12.71558,12.71558,0,0,0-3.8-4.5,5.24823,5.24823,0,0,0-6.3.4,14.82459,14.82459,0,0,0-3.1,3.9q-13.8,23.7-27.5,47.6c-1.3,2.3-2.6,4.5-4,6.8-5.5-3.1-10.8-6.2-16.3-9.3,1.3-2.2,2.5-4.4,3.7-6.5,8.8-15.2,17.6-30.3,26.3-45.6,2.7-4.8,6.3-8.8,9.9-12.9a17.39166,17.39166,0,0,1,3.8-2.7,27.95271,27.95271,0,0,1,9.3-3.3.75806.75806,0,0,0,.4-.2Z"></path> <path d="M74.78045,109.34358c-5-2.9-9.9-5.8-14.8-8.6v-.3c.7,0,1.5-.1,2.2-.1q14.7-.45,29.4-.9a1.68152,1.68152,0,0,1,1.7.9l9.3,17.1c2,3.7,4,7.3,5.9,11.2-5.8-3.3-11.6-6.7-17.5-10.1-1,1.7-2,3.4-3,5q-9.9,17.25-19.8,34.5c-1.5,2.5-3,5-4.4,7.6a10.75863,10.75863,0,0,0-1.3,4.3,5.40545,5.40545,0,0,0,4.2,5.7,13.4486,13.4486,0,0,0,3.5.5h63.5v18.7c-.4,0-.8.1-1.2.1-21,0-42.1.1-63.1-.1-2.8,0-5.5-1-8.3-1.3-6.4-.7-11.3-4.2-15.1-9.1a19.147,19.147,0,0,1-4.1-14.7,30.20731,30.20731,0,0,1,4.1-10.8c6.9-12,13.9-24.1,20.8-36.1C69.48044,118.54359,72.08044,114.04359,74.78045,109.34358Z"></path> <path d="M113.37672,125.78883c0-12.89941,5.04-19.65527,12.96-19.65527,7.91895,0,12.959,6.7915,12.959,19.65527,0,12.89942-5.04,19.9668-12.959,19.9668C118.41676,145.75563,113.37672,138.68825,113.37672,125.78883Zm19.31934,0c0-10.7998-2.66406-14.23144-6.35938-14.23144-3.69628,0-6.36035,3.43164-6.36035,14.23144,0,10.79932,2.66407,14.54346,6.36035,14.54346C130.032,140.33229,132.69606,136.58815,132.69606,125.78883Z"></path> <path d="M144.03639,141.02809c10.584-10.29541,17.25586-16.99121,17.25586-22.82324,0-4.01953-2.208-6.57569-6.3125-6.57569-2.95117,0-5.39941,1.94385-7.43945,4.22413l-3.83985-3.792c3.48047-3.76806,6.9834-5.92773,12.19141-5.92773,7.2959,0,12.07227,4.63184,12.07227,11.71142,0,6.79151-6.28809,13.7754-13.89551,21.71924,2.01562-.19238,4.53515-.38427,6.40722-.38427h9.33594v5.856H144.03639Z"></path> <path d="M50.20387,222.49293H65.87965c10.03907,0,18.13672,3.59082,18.13672,14.67774,0,10.72461-8.1875,15.46875-17.85644,15.46875H60.5193v15.48144H50.20387ZM65.55055,244.45c5.67188,0,8.35645-2.52832,8.35645-7.2793,0-4.77539-3.05469-6.48731-8.63672-6.48731h-4.751V244.45Z"></path> <path d="M91.9236,222.49293h28.58984v8.65137H102.239v9.16211h15.55664v8.65137H102.239V259.4695h18.97461v8.65136h-29.29Z"></path> <path d="M127.92848,246.75465h17.19873v7.292H127.92848Z"></path> <path d="M152.4026,222.49293h10.31446v17.583H178.469v-17.583h10.31445v45.62793H178.469V249.073H162.71706v19.04785H152.4026Z"></path> <path d="M199.58229,222.49293h12.89844c13.93554,0,22.91406,6.9336,22.91406,22.61622s-8.97852,23.01171-22.33789,23.01171H199.58229Zm12.27148,37.32325c7.74024,0,12.97071-3.79493,12.97071-14.707S219.594,230.7986,211.85377,230.7986h-1.957v29.01758Z"></path> </svg> 