<?xml version="1.0" encoding="UTF-8"?> <svg xmlns="http://www.w3.org/2000/svg" id="Слой_1" data-name="Слой 1" viewBox="0 0 283.46457 283.46457"> <path d="M241.78045,174.54359c-.4,1.8-.8,3.5-1.1,5.3a18.00866,18.00866,0,0,1-3.8,7.4c-3.8,5.1-9.1,7.2-15.2,7.6-5,.4-10.1.2-15.2.2h-45.2a3.7509,3.7509,0,0,0-1,.1v17.1c-.1,0-.1,0-.2.1a3.50818,3.50818,0,0,1-.5-.8c-2.5-4.1-5-8.1-7.5-12.2-2.9-4.8-5.8-9.5-8.8-14.3a1.20057,1.20057,0,0,1,0-1.5c4-6.6,8.1-13.2,12.1-19.8,1.5-2.5,3-5,4.7-7.5v19.9c.5,0,.8.1,1.1.1h53.1c2.2,0,4.5-.2,6.2-2.1a5.62629,5.62629,0,0,0,1.4-4.3c-.1-2.4-1.4-4.3-2.5-6.2-5.6-9.8-11.3-19.6-17-29.4-4.1-7.1-8.2-14.1-12.3-21.2-.4-.8-.9-1.6-1.4-2.5,5.4-3.1,10.7-6.2,16.2-9.4.5.9,1,1.8,1.5,2.6q11.25,19.5,22.5,39.1c2.7,4.7,5.6,9.4,8.2,14.3a54.18706,54.18706,0,0,1,3.5,9,31.15579,31.15579,0,0,1,1.1,5.3A29.12186,29.12186,0,0,1,241.78045,174.54359Z"></path> <path d="M143.58045,15.34359c.9.1,1.9.2,2.8.3,5.6.5,9.7,3.6,13.3,7.7a28.58133,28.58133,0,0,1,2.8,4q14.1,24.15,28,48.3c.4.8.9,1.5,1.4,2.4,5-3,10-5.9,15-8.8.1,0,.1.1.2.1-.2.4-.4.7-.6,1.1-2.4,4.4-4.8,8.7-7.1,13.1-2.5,4.7-5,9.4-7.4,14.2a1.42461,1.42461,0,0,1-1.6.9c-8.8-.3-17.7-.5-26.5-.7h-5.3c0-.1-.1-.3-.1-.4,5.7-3.3,11.5-6.7,17.3-10-1.7-3-3.4-5.8-5-8.6-7.2-12.4-14.3-24.9-21.5-37.3a12.71558,12.71558,0,0,0-3.8-4.5,5.24823,5.24823,0,0,0-6.3.4,14.82459,14.82459,0,0,0-3.1,3.9q-13.8,23.7-27.5,47.6c-1.3,2.3-2.6,4.5-4,6.8-5.5-3.1-10.8-6.2-16.3-9.3,1.3-2.2,2.5-4.4,3.7-6.5,8.8-15.2,17.6-30.3,26.3-45.6,2.7-4.8,6.3-8.8,9.9-12.9a17.39166,17.39166,0,0,1,3.8-2.7,27.95271,27.95271,0,0,1,9.3-3.3.75806.75806,0,0,0,.4-.2Z"></path> <path d="M74.78045,109.34358c-5-2.9-9.9-5.8-14.8-8.6v-.3c.7,0,1.5-.1,2.2-.1q14.7-.45,29.4-.9a1.68152,1.68152,0,0,1,1.7.9l9.3,17.1c2,3.7,4,7.3,5.9,11.2-5.8-3.3-11.6-6.7-17.5-10.1-1,1.7-2,3.4-3,5q-9.9,17.25-19.8,34.5c-1.5,2.5-3,5-4.4,7.6a10.75863,10.75863,0,0,0-1.3,4.3,5.40545,5.40545,0,0,0,4.2,5.7,13.4486,13.4486,0,0,0,3.5.5h63.5v18.7c-.4,0-.8.1-1.2.1-21,0-42.1.1-63.1-.1-2.8,0-5.5-1-8.3-1.3-6.4-.7-11.3-4.2-15.1-9.1a19.147,19.147,0,0,1-4.1-14.7,30.20731,30.20731,0,0,1,4.1-10.8c6.9-12,13.9-24.1,20.8-36.1C69.48044,118.54359,72.08044,114.04359,74.78045,109.34358Z"></path> <path d="M113.37672,125.78883c0-12.89941,5.04-19.65527,12.96-19.65527,7.91895,0,12.959,6.7915,12.959,19.65527,0,12.89942-5.04,19.9668-12.959,19.9668C118.41676,145.75563,113.37672,138.68825,113.37672,125.78883Zm19.31934,0c0-10.7998-2.66406-14.23144-6.35938-14.23144-3.69628,0-6.36035,3.43164-6.36035,14.23144,0,10.79932,2.66407,14.54346,6.36035,14.54346C130.032,140.33229,132.69606,136.58815,132.69606,125.78883Z"></path> <path d="M143.17213,140.35622l3.28711-4.416c2.31641,2.30371,5.21973,4.17578,9.04785,4.17578,4.17579,0,7.05567-2.15967,7.05567-5.75976,0-3.93555-2.53223-6.4795-11.207-6.4795v-5.04c7.46289,0,9.91113-2.59179,9.91113-6.0957,0-3.19189-2.124-5.11182-5.63965-5.11182-2.95215,0-5.32812,1.416-7.63183,3.6001l-3.57618-4.272c3.24024-2.87988,6.91211-4.82373,11.4961-4.82373,7.2959,0,12.31152,3.64795,12.31152,10.09131,0,4.26025-2.52051,7.14013-6.64746,8.772v.23975c4.51172,1.17627,7.94336,4.416,7.94336,9.5039,0,6.95948-6.07227,11.01514-13.416,11.01514C149.95143,145.75563,145.85963,143.37965,143.17213,140.35622Z"></path> <path d="M86.77907,222.49293h15.67578c10.03906,0,18.13672,3.59082,18.13672,14.67774,0,10.72461-8.1875,15.46875-17.85645,15.46875H97.0945v15.48144H86.77907Zm15.34668,21.957c5.67187,0,8.35644-2.52832,8.35644-7.2793,0-4.77539-3.05469-6.48731-8.63672-6.48731h-4.751V244.45Z"></path> <path d="M122.61012,222.49293h10.917l5.5,21.2627c1.35938,4.99023,2.27344,9.59473,3.65625,14.63086h.27979c1.38379-5.03613,2.35547-9.64063,3.65625-14.63086l5.38476-21.2627h10.5459l-13.76172,45.62793H136.39625Z"></path> <path d="M164.56081,245.57106c0-15.13867,10.00781-23.918,21.53808-23.918a19.24945,19.24945,0,0,1,13.72266,5.92188l-5.4375,6.61621c-2.29-2.13282-4.752-3.63184-8.05469-3.63184-6.25684,0-11.19727,5.51758-11.19727,14.665,0,9.37891,4.36329,14.83008,11.03321,14.83008a12.02329,12.02329,0,0,0,8.92676-4.26563l5.4375,6.47657a18.78368,18.78368,0,0,1-14.73536,6.69531C174.22291,268.96071,164.56081,260.9402,164.56081,245.57106Z"></path> </svg> 