<?xml version="1.0" encoding="UTF-8"?> <svg xmlns="http://www.w3.org/2000/svg" id="Слой_1" data-name="Слой 1" viewBox="0 0 283.46457 283.46457"> <path d="M241.78045,174.54359c-.4,1.8-.8,3.5-1.1,5.3a18.00866,18.00866,0,0,1-3.8,7.4c-3.8,5.1-9.1,7.2-15.2,7.6-5,.4-10.1.2-15.2.2h-45.2a3.7509,3.7509,0,0,0-1,.1v17.1c-.1,0-.1,0-.2.1a3.50818,3.50818,0,0,1-.5-.8c-2.5-4.1-5-8.1-7.5-12.2-2.9-4.8-5.8-9.5-8.8-14.3a1.20057,1.20057,0,0,1,0-1.5c4-6.6,8.1-13.2,12.1-19.8,1.5-2.5,3-5,4.7-7.5v19.9c.5,0,.8.1,1.1.1h53.1c2.2,0,4.5-.2,6.2-2.1a5.62629,5.62629,0,0,0,1.4-4.3c-.1-2.4-1.4-4.3-2.5-6.2-5.6-9.8-11.3-19.6-17-29.4-4.1-7.1-8.2-14.1-12.3-21.2-.4-.8-.9-1.6-1.4-2.5,5.4-3.1,10.7-6.2,16.2-9.4.5.9,1,1.8,1.5,2.6q11.25,19.5,22.5,39.1c2.7,4.7,5.6,9.4,8.2,14.3a54.18706,54.18706,0,0,1,3.5,9,31.15579,31.15579,0,0,1,1.1,5.3A29.12186,29.12186,0,0,1,241.78045,174.54359Z"></path> <path d="M143.58045,15.34359c.9.1,1.9.2,2.8.3,5.6.5,9.7,3.6,13.3,7.7a28.58133,28.58133,0,0,1,2.8,4q14.1,24.15,28,48.3c.4.8.9,1.5,1.4,2.4,5-3,10-5.9,15-8.8.1,0,.1.1.2.1-.2.4-.4.7-.6,1.1-2.4,4.4-4.8,8.7-7.1,13.1-2.5,4.7-5,9.4-7.4,14.2a1.42461,1.42461,0,0,1-1.6.9c-8.8-.3-17.7-.5-26.5-.7h-5.3c0-.1-.1-.3-.1-.4,5.7-3.3,11.5-6.7,17.3-10-1.7-3-3.4-5.8-5-8.6-7.2-12.4-14.3-24.9-21.5-37.3a12.71558,12.71558,0,0,0-3.8-4.5,5.24823,5.24823,0,0,0-6.3.4,14.82459,14.82459,0,0,0-3.1,3.9q-13.8,23.7-27.5,47.6c-1.3,2.3-2.6,4.5-4,6.8-5.5-3.1-10.8-6.2-16.3-9.3,1.3-2.2,2.5-4.4,3.7-6.5,8.8-15.2,17.6-30.3,26.3-45.6,2.7-4.8,6.3-8.8,9.9-12.9a17.39166,17.39166,0,0,1,3.8-2.7,27.95271,27.95271,0,0,1,9.3-3.3.75806.75806,0,0,0,.4-.2Z"></path> <path d="M74.78045,109.34358c-5-2.9-9.9-5.8-14.8-8.6v-.3c.7,0,1.5-.1,2.2-.1q14.7-.45,29.4-.9a1.68152,1.68152,0,0,1,1.7.9l9.3,17.1c2,3.7,4,7.3,5.9,11.2-5.8-3.3-11.6-6.7-17.5-10.1-1,1.7-2,3.4-3,5q-9.9,17.25-19.8,34.5c-1.5,2.5-3,5-4.4,7.6a10.75863,10.75863,0,0,0-1.3,4.3,5.40545,5.40545,0,0,0,4.2,5.7,13.4486,13.4486,0,0,0,3.5.5h63.5v18.7c-.4,0-.8.1-1.2.1-21,0-42.1.1-63.1-.1-2.8,0-5.5-1-8.3-1.3-6.4-.7-11.3-4.2-15.1-9.1a19.147,19.147,0,0,1-4.1-14.7,30.20731,30.20731,0,0,1,4.1-10.8c6.9-12,13.9-24.1,20.8-36.1C69.48044,118.54359,72.08044,114.04359,74.78045,109.34358Z"></path> <path d="M113.37672,125.78883c0-12.89941,5.04-19.65527,12.96-19.65527,7.91895,0,12.959,6.7915,12.959,19.65527,0,12.89942-5.04,19.9668-12.959,19.9668C118.41676,145.75563,113.37672,138.68825,113.37672,125.78883Zm19.31934,0c0-10.7998-2.66406-14.23144-6.35938-14.23144-3.69628,0-6.36035,3.43164-6.36035,14.23144,0,10.79932,2.66407,14.54346,6.36035,14.54346C130.032,140.33229,132.69606,136.58815,132.69606,125.78883Z"></path> <path d="M144.39577,127.10866c0-14.80762,7.17578-20.9751,14.999-20.9751a13.75213,13.75213,0,0,1,10.20019,4.31982l-3.7207,4.19971a8.42219,8.42219,0,0,0-6.0957-2.87988c-4.95508,0-8.999,3.86377-8.999,15.33545,0,9.43164,3.01171,13.36718,7.34375,13.36718,3.168,0,5.71191-2.57959,5.71191-7.24755,0-4.49952-2.23242-6.81543-6.02441-6.81543-2.23145,0-4.88379,1.29589-7.05567,4.75146l-.28808-4.84766c2.18457-3.04785,5.748-4.896,8.61621-4.896,6.57519,0,11.13574,3.83984,11.13574,11.80762,0,7.63183-5.47266,12.52734-12,12.52734C150.75514,145.75563,144.39577,139.948,144.39577,127.10866Z"></path> <path d="M107.14821,222.49293H122.824c10.03906,0,18.13672,3.59082,18.13672,14.67774,0,10.72461-8.1875,15.46875-17.85645,15.46875h-5.64062v15.48144H107.14821Zm15.34668,21.957c5.67187,0,8.35644-2.52832,8.35644-7.2793,0-4.77539-3.05468-6.48731-8.63672-6.48731h-4.751V244.45Z"></path> <path d="M145.219,262.364l5.92383-7.07715c3.24511,2.82422,7.45312,4.76758,11.208,4.76758,4.30567,0,6.41309-1.69531,6.41309-4.40332,0-2.87305-2.59375-3.79492-6.5791-5.4336l-5.92969-2.52832c-4.72851-1.92285-9.208-5.80664-9.208-12.4375,0-7.56054,6.75391-13.59863,16.251-13.59863a21.09813,21.09813,0,0,1,14.67871,5.97949l-5.208,6.501c-3.00586-2.30566-5.86328-3.57422-9.4707-3.57422-3.55566,0-5.82031,1.48145-5.82031,4.0918,0,2.79883,2.98535,3.81543,6.96777,5.40039l5.81348,2.35547c5.57226,2.25195,9.05176,5.96289,9.05176,12.41211,0,7.57714-6.31739,14.1416-17.19043,14.1416A25.12963,25.12963,0,0,1,145.219,262.364Z"></path> </svg> 