<?xml version="1.0" encoding="UTF-8"?> <svg xmlns="http://www.w3.org/2000/svg" id="Слой_1" data-name="Слой 1" viewBox="0 0 283.46457 283.46457"> <path d="M241.78045,174.54359c-.4,1.8-.8,3.5-1.1,5.3a18.00866,18.00866,0,0,1-3.8,7.4c-3.8,5.1-9.1,7.2-15.2,7.6-5,.4-10.1.2-15.2.2h-45.2a3.7509,3.7509,0,0,0-1,.1v17.1c-.1,0-.1,0-.2.1a3.50818,3.50818,0,0,1-.5-.8c-2.5-4.1-5-8.1-7.5-12.2-2.9-4.8-5.8-9.5-8.8-14.3a1.20057,1.20057,0,0,1,0-1.5c4-6.6,8.1-13.2,12.1-19.8,1.5-2.5,3-5,4.7-7.5v19.9c.5,0,.8.1,1.1.1h53.1c2.2,0,4.5-.2,6.2-2.1a5.62629,5.62629,0,0,0,1.4-4.3c-.1-2.4-1.4-4.3-2.5-6.2-5.6-9.8-11.3-19.6-17-29.4-4.1-7.1-8.2-14.1-12.3-21.2-.4-.8-.9-1.6-1.4-2.5,5.4-3.1,10.7-6.2,16.2-9.4.5.9,1,1.8,1.5,2.6q11.25,19.5,22.5,39.1c2.7,4.7,5.6,9.4,8.2,14.3a54.18706,54.18706,0,0,1,3.5,9,31.15579,31.15579,0,0,1,1.1,5.3A29.12186,29.12186,0,0,1,241.78045,174.54359Z"></path> <path d="M143.58045,15.34359c.9.1,1.9.2,2.8.3,5.6.5,9.7,3.6,13.3,7.7a28.58133,28.58133,0,0,1,2.8,4q14.1,24.15,28,48.3c.4.8.9,1.5,1.4,2.4,5-3,10-5.9,15-8.8.1,0,.1.1.2.1-.2.4-.4.7-.6,1.1-2.4,4.4-4.8,8.7-7.1,13.1-2.5,4.7-5,9.4-7.4,14.2a1.42461,1.42461,0,0,1-1.6.9c-8.8-.3-17.7-.5-26.5-.7h-5.3c0-.1-.1-.3-.1-.4,5.7-3.3,11.5-6.7,17.3-10-1.7-3-3.4-5.8-5-8.6-7.2-12.4-14.3-24.9-21.5-37.3a12.71558,12.71558,0,0,0-3.8-4.5,5.24823,5.24823,0,0,0-6.3.4,14.82459,14.82459,0,0,0-3.1,3.9q-13.8,23.7-27.5,47.6c-1.3,2.3-2.6,4.5-4,6.8-5.5-3.1-10.8-6.2-16.3-9.3,1.3-2.2,2.5-4.4,3.7-6.5,8.8-15.2,17.6-30.3,26.3-45.6,2.7-4.8,6.3-8.8,9.9-12.9a17.39166,17.39166,0,0,1,3.8-2.7,27.95271,27.95271,0,0,1,9.3-3.3.75806.75806,0,0,0,.4-.2Z"></path> <path d="M74.78045,109.34358c-5-2.9-9.9-5.8-14.8-8.6v-.3c.7,0,1.5-.1,2.2-.1q14.7-.45,29.4-.9a1.68152,1.68152,0,0,1,1.7.9l9.3,17.1c2,3.7,4,7.3,5.9,11.2-5.8-3.3-11.6-6.7-17.5-10.1-1,1.7-2,3.4-3,5q-9.9,17.25-19.8,34.5c-1.5,2.5-3,5-4.4,7.6a10.75863,10.75863,0,0,0-1.3,4.3,5.40545,5.40545,0,0,0,4.2,5.7,13.4486,13.4486,0,0,0,3.5.5h63.5v18.7c-.4,0-.8.1-1.2.1-21,0-42.1.1-63.1-.1-2.8,0-5.5-1-8.3-1.3-6.4-.7-11.3-4.2-15.1-9.1a19.147,19.147,0,0,1-4.1-14.7,30.20731,30.20731,0,0,1,4.1-10.8c6.9-12,13.9-24.1,20.8-36.1C69.48044,118.54359,72.08044,114.04359,74.78045,109.34358Z"></path> <path d="M113.37672,125.78883c0-12.89941,5.04-19.65527,12.96-19.65527,7.91895,0,12.959,6.7915,12.959,19.65527,0,12.89942-5.04,19.9668-12.959,19.9668C118.41676,145.75563,113.37672,138.68825,113.37672,125.78883Zm19.31934,0c0-10.7998-2.66406-14.23144-6.35938-14.23144-3.69628,0-6.36035,3.43164-6.36035,14.23144,0,10.79932,2.66407,14.54346,6.36035,14.54346C130.032,140.33229,132.69606,136.58815,132.69606,125.78883Z"></path> <path d="M144.56471,141.43629l3.71973-4.20019a8.42382,8.42382,0,0,0,6.0957,2.87988c4.99219,0,9-3.86377,9-15.33545,0-9.43164-3.01269-13.36719-7.34375-13.36719-3.168,0-5.71191,2.57959-5.71191,7.24756,0,4.5,2.23144,6.81592,6.02343,6.81592,2.23243,0,4.88379-1.2959,7.05567-4.752l.28808,4.84765c-2.18359,3.04786-5.748,4.896-8.61523,4.896-6.57617,0-11.13574-3.83984-11.13574-11.80762,0-7.63183,5.47168-12.52734,11.999-12.52734,7.46387,0,13.82422,5.80762,13.82422,18.647,0,14.80762-7.17578,20.9751-15,20.9751A13.71146,13.71146,0,0,1,144.56471,141.43629Z"></path> <path d="M96.05446,222.49293h12.34277l14.33008,45.62793h-10.917l-5.96973-23.10839c-1.26758-4.56153-2.48633-9.957-3.70508-14.7168h-.28027c-1.10352,4.81738-2.32227,10.15527-3.58984,14.7168l-5.99415,23.10839H81.72536Zm-4.88184,26.74219h21.9541v8.01758H91.17262Z"></path> <path d="M127.114,222.49293h15.61719c9.47119,0,16.82763,2.60254,16.82763,11.31641,0,4.09277-2.29,8.4502-6.01269,9.85059v.28027c4.66113,1.21094,8.26074,4.64453,8.26074,10.73926,0,9.28222-7.85059,13.4414-17.77442,13.4414H127.114Zm15.14062,18.27539c5.0044,0,7.21826-2.11621,7.21826-5.43457,0-3.51464-2.33691-4.88183-7.145-4.88183h-4.89844v10.3164Zm.938,19.39356c5.623,0,8.5293-2.001,8.5293-6.14941,0-4.002-2.85742-5.63184-8.5293-5.63184h-5.76318v11.78125Z"></path> <path d="M165.25612,262.364l5.92383-7.07715c3.24511,2.82422,7.45312,4.76758,11.208,4.76758,4.30567,0,6.41309-1.69531,6.41309-4.40332,0-2.87305-2.59375-3.79492-6.5791-5.4336l-5.92969-2.52832c-4.72852-1.92285-9.208-5.80664-9.208-12.4375,0-7.56054,6.75391-13.59863,16.251-13.59863a21.09813,21.09813,0,0,1,14.67871,5.97949l-5.208,6.501c-3.00586-2.30566-5.86328-3.57422-9.4707-3.57422-3.55566,0-5.82031,1.48145-5.82031,4.0918,0,2.79883,2.98535,3.81543,6.96777,5.40039l5.81348,2.35547c5.57226,2.25195,9.05175,5.96289,9.05175,12.41211,0,7.57714-6.31738,14.1416-17.19043,14.1416A25.12959,25.12959,0,0,1,165.25612,262.364Z"></path> </svg> 